<?xml version="1.0" encoding="UTF-8" standalone="no"?>
<svg width="190px" height="31px" viewBox="0 0 190 31" version="1.1" xmlns="http://www.w3.org/2000/svg" xmlns:xlink="http://www.w3.org/1999/xlink" xmlns:sketch="http://www.bohemiancoding.com/sketch/ns">
    <!-- Generator: Sketch 3.3.2 (12043) - http://www.bohemiancoding.com/sketch -->
    <title>Vector Smart Object</title>
    <desc>Created with Sketch.</desc>
    <defs>
        <path id="path-1" d="M0,31 L189.382,31 L189.382,0.4 L0,0.4"></path>
        <path id="path-3" d="M0,31 L189.382,31 L189.382,0.4 L0,0.4"></path>
    </defs>
    <g id="Page-1" stroke="none" stroke-width="1" fill="none" fill-rule="evenodd" sketch:type="MSPage">
        <g id="Vector-Smart-Object" sketch:type="MSLayerGroup">
            <path d="M59.7166,20.0323 C56.8536,20.0323 55.1176,17.7033 55.1176,14.8363 C55.1176,11.9663 56.8536,9.6363 59.7166,9.6363 C62.5816,9.6363 64.3186,11.9663 64.3186,14.8363 C64.3186,17.7033 62.5816,20.0323 59.7166,20.0323 M59.7166,5.9073 C54.7996,5.9073 50.8136,9.9033 50.8136,14.8363 C50.8136,19.7613 54.7996,23.7583 59.7166,23.7583 C64.6346,23.7583 68.6196,19.7613 68.6196,14.8363 C68.6196,9.9033 64.6346,5.9073 59.7166,5.9073" id="Fill-1" fill="#41983E" sketch:type="MSShapeGroup"></path>
            <g id="Group-5">
                <mask id="mask-2" sketch:name="Clip 4" fill="white">
                    <use xlink:href="#path-1"></use>
                </mask>
                <g id="Clip-4"></g>
                <path d="M72.5479,0.3997 C71.3249,0.3997 70.3299,1.3967 70.3299,2.6227 C70.3299,3.8487 71.3249,4.8747 72.5479,4.8747 C73.7709,4.8747 74.7959,3.8487 74.7959,2.6227 C74.7959,1.3967 73.7709,0.3997 72.5479,0.3997" id="Fill-3" fill="#41983E" sketch:type="MSShapeGroup" mask="url(#mask-2)"></path>
            </g>
            <path d="M170.728,13.8215 C167.823,13.3315 167.318,12.9815 167.323,12.1255 C167.329,11.0165 168.155,10.2295 170.746,10.2445 C172.77,10.2545 174.722,10.9615 175.602,11.8515 L175.76,11.8525 L175.768,10.2385 C175.777,8.5905 174.208,6.5885 170.356,6.5675 C165.996,6.5445 163.107,9.2525 163.089,12.4515 C163.077,15.0475 164.804,16.4845 168.405,17.0075 C171.34,17.4365 171.936,17.9135 171.931,18.8945 C171.924,20.1625 170.913,20.7595 168.827,20.7485 C166.805,20.7375 164.63,19.9645 163.719,19.1055 L163.559,19.1045 L163.549,21.0365 C163.54,22.7775 165.872,24.4055 168.997,24.4215 C173.576,24.4465 176.116,22.3065 176.135,18.6955 C176.149,15.9715 174.264,14.4095 170.728,13.8215" id="Fill-6" fill="#41983E" sketch:type="MSShapeGroup"></path>
            <path d="M25.8679,5.0741 C27.9829,5.0831 29.8879,5.9761 31.2409,7.3991 L31.4039,7.4211 L31.4039,2.8511 C29.5519,1.6001 27.3709,0.8621 24.9699,0.8511 C18.5179,0.8201 13.2609,6.0391 13.2299,12.5091 C13.1999,18.9761 18.4079,24.2441 24.8599,24.2741 C27.2609,24.2851 29.5409,23.5711 31.4039,22.3351 L31.4039,17.8771 L31.1919,17.8691 C29.8309,19.2281 27.8709,20.0681 25.7979,20.0581 C21.6699,20.0391 18.3409,16.6681 18.3609,12.5321 C18.3799,8.3931 21.7389,5.0551 25.8679,5.0741" id="Fill-8" fill="#41983E" sketch:type="MSShapeGroup"></path>
            <path d="M81.3757,2.3757 L80.3967,2.3757 C77.1747,2.3757 77.1747,4.6177 77.1747,6.9357 L77.1747,17.1957 C77.1747,21.1847 79.2597,23.5287 83.5547,23.5287 C88.1267,23.5287 87.2837,19.1597 87.2837,19.1597 L87.2487,19.1597 C86.5847,19.5707 85.4187,19.7927 84.0607,19.7617 C82.3947,19.7227 81.3757,18.9067 81.3757,16.6897 L81.3757,10.0077 L87.2837,10.0077 L87.2837,6.2387 L81.3757,6.2387 L81.3757,2.3757 Z" id="Fill-10" fill="#41983E" sketch:type="MSShapeGroup"></path>
            <path d="M71.4645,6.2383 L70.4855,6.2383 L70.4845,18.8193 C70.4845,21.7473 70.4845,23.3803 73.7065,23.3803 L74.6855,23.3803 L74.6865,10.7983 C74.6865,7.6363 74.6865,6.2383 71.4645,6.2383" id="Fill-12" fill="#41983E" sketch:type="MSShapeGroup"></path>
            <path d="M155.0642,6.375 C153.3422,6.348 151.7492,6.615 149.9132,8.48 C148.5832,6.868 146.7752,6.249 144.8112,6.22 C143.1852,6.197 141.6732,6.434 139.9632,8.031 C138.5002,6.236 136.7942,6.362 136.7942,6.362 L136.7942,23.597 L140.9532,23.662 C140.9532,23.662 140.9522,13.885 140.9532,13.802 C141.0012,10.64 142.7672,9.976 144.0702,9.994 C145.3002,10.013 146.9802,10.729 146.9332,13.916 L146.9332,23.75 L151.2062,23.814 C151.2062,23.814 151.2052,14.039 151.2062,13.955 C151.2542,10.794 153.0182,10.13 154.3242,10.148 C155.6232,10.168 157.2302,10.883 157.1822,14.069 L157.1822,23.905 L161.4882,23.967 L161.4882,13.558 L161.4882,13.557 C161.5702,8.101 158.2232,6.422 155.0642,6.375" id="Fill-14" fill="#41983E" sketch:type="MSShapeGroup"></path>
            <path d="M125.3982,20.0922 C122.5332,20.0772 120.8102,17.7392 120.8262,14.8702 C120.8422,12.0012 122.5912,9.6822 125.4542,9.6982 C128.3192,9.7142 130.0432,12.0522 130.0272,14.9212 C130.0112,17.7902 128.2612,20.1092 125.3982,20.0922 M131.1032,7.9282 L131.1012,7.9282 C129.5912,6.7142 127.5612,5.9792 125.4742,5.9682 C120.5562,5.9412 116.5492,9.9152 116.5212,14.8472 C116.4942,19.7732 120.4592,23.7922 125.3772,23.8192 C127.5172,23.8302 129.4842,23.0812 131.0262,21.8282 C132.1602,23.2832 134.2262,23.5552 134.2262,23.5552 L134.2262,6.3182 L134.2262,6.3172 C134.2262,6.3172 132.6032,6.1632 131.1032,7.9282" id="Fill-16" fill="#41983E" sketch:type="MSShapeGroup"></path>
            <path d="M113.5027,5.8421 C111.2717,5.8421 110.3017,7.1761 109.7477,7.7661 C108.2577,5.9931 106.6697,6.1431 106.6697,6.1431 L106.6237,6.1431 L106.6237,18.8191 C106.6237,21.7471 106.6237,23.3801 109.8467,23.3801 L110.8257,23.3801 C110.8257,23.3801 110.8207,13.5591 110.8207,13.5191 C110.8207,11.0571 111.8867,10.0951 112.9737,9.7901 C113.2417,9.7151 113.5307,9.6771 113.8427,9.6771 C114.9507,9.6771 115.8167,9.9341 116.4487,10.1861 L116.4677,10.1861 C116.4677,10.1861 116.9827,5.8421 113.5027,5.8421" id="Fill-18" fill="#41983E" sketch:type="MSShapeGroup"></path>
            <path d="M97.9109,5.8829 C97.8289,5.8829 97.7499,5.8849 97.6689,5.8869 C97.5789,5.8839 97.4889,5.8829 97.3979,5.8829 C95.6369,5.8829 94.1169,6.8159 93.4889,8.1629 L93.4889,5.0979 C93.4889,2.1709 93.4889,0.5379 90.2649,0.5379 L89.2849,0.5379 L89.2849,23.3799 L93.4889,23.3799 L93.4889,13.6679 C93.4889,11.8839 94.0189,9.6679 96.7329,9.6679 C98.0629,9.6679 99.9309,10.5809 99.9309,13.5439 L99.9299,23.3799 L104.1329,23.3799 C104.1329,23.3799 104.1319,12.9889 104.1299,12.9689 L104.1329,12.9679 C104.1329,7.5109 101.1799,5.8829 97.9109,5.8829" id="Fill-20" fill="#41983E" sketch:type="MSShapeGroup"></path>
            <path d="M42.6957,6.1931 C40.4687,6.2251 38.8937,7.1811 38.2847,8.5371 L38.2847,5.4711 C38.2437,2.5441 38.1987,0.9121 34.9757,0.9571 L34.1577,0.9711 L34.1577,23.8111 L38.4527,23.7521 L38.4527,14.0411 C38.4257,12.0871 38.8577,9.9431 41.5707,9.9041 C42.9007,9.8861 44.8517,10.8621 44.8937,13.8251 L44.8937,23.6601 L49.0657,23.6011 L49.0657,13.1911 L49.0657,13.1901 C48.9887,7.7331 45.9647,6.1481 42.6957,6.1931" id="Fill-22" fill="#41983E" sketch:type="MSShapeGroup"></path>
            <g id="Group-26">
                <mask id="mask-4" sketch:name="Clip 25" fill="white">
                    <use xlink:href="#path-3"></use>
                </mask>
                <g id="Clip-25"></g>
                <path d="M189.3819,29.003 C189.3819,30.105 146.9879,31 94.6909,31 C42.3939,31 -0.0001,30.105 -0.0001,29.003 C-0.0001,27.899 42.3939,27.006 94.6909,27.006 C146.9879,27.006 189.3819,27.899 189.3819,29.003" id="Fill-24" fill="#F68E1E" sketch:type="MSShapeGroup" mask="url(#mask-4)"></path>
            </g>
        </g>
    </g>
</svg>